<?xml version="1.0" encoding="iso-8859-1"?>
<!-- Generator: Adobe Illustrator 19.0.0, SVG Export Plug-In . SVG Version: 6.00 Build 0)  -->
<svg version="1.1" id="Capa_1" xmlns="http://www.w3.org/2000/svg" xmlns:xlink="http://www.w3.org/1999/xlink" x="0px" y="0px"
	 viewBox="0 0 512 512" style="enable-background:new 0 0 512 512;" xml:space="preserve">
<g>
	<g>
		<g>
			<path d="M494.933,93.867H17.067C7.645,93.877,0.011,101.512,0,110.933v290.133c0.011,9.421,7.645,17.056,17.067,17.067h477.867
				c9.421-0.011,17.056-7.646,17.067-17.067V110.933C511.989,101.512,504.355,93.877,494.933,93.867z M17.067,401.067V110.933h51.2
				v25.6c0,4.713,3.82,8.533,8.533,8.533s8.533-3.82,8.533-8.533v-25.6H102.4v25.6c0,4.713,3.82,8.533,8.533,8.533
				s8.533-3.82,8.533-8.533v-25.6h17.067v25.6c0,4.713,3.82,8.533,8.533,8.533s8.533-3.82,8.533-8.533v-25.6h17.067v25.6
				c0,4.713,3.82,8.533,8.533,8.533s8.533-3.82,8.533-8.533v-25.6H204.8v25.6c0,4.713,3.821,8.533,8.533,8.533
				c4.713,0,8.533-3.82,8.533-8.533v-25.6h17.067v25.6c0,4.713,3.82,8.533,8.533,8.533s8.533-3.82,8.533-8.533v-25.6h17.067v25.6
				c0,4.713,3.82,8.533,8.533,8.533s8.533-3.82,8.533-8.533v-25.6h204.8l0.012,290.133H17.067z"/>
			<path d="M452.267,162.133H59.733c-14.132,0.015-25.585,11.468-25.6,25.6V204.8c-0.001,2.263,0.898,4.434,2.499,6.035
				c1.6,1.6,3.771,2.499,6.035,2.499H51.2v85.333h-8.533c-2.263-0.001-4.434,0.898-6.035,2.499c-1.6,1.6-2.499,3.771-2.499,6.035
				v17.067c0.015,14.132,11.468,25.585,25.6,25.6h392.533c14.132-0.015,25.585-11.468,25.6-25.6V307.2
				c0.001-2.263-0.898-4.434-2.499-6.035c-1.6-1.6-3.771-2.499-6.035-2.499H460.8v-85.333h8.533
				c2.263,0.001,4.434-0.898,6.035-2.499c1.6-1.6,2.499-3.771,2.499-6.035v-17.067C477.851,173.601,466.399,162.149,452.267,162.133
				z M460.8,196.267h-8.533c-2.263-0.001-4.434,0.898-6.035,2.499c-1.6,1.6-2.499,3.771-2.499,6.035v102.4
				c-0.001,2.263,0.898,4.434,2.499,6.035c1.6,1.6,3.771,2.499,6.035,2.499h8.533v8.533c-0.005,4.711-3.823,8.529-8.533,8.533
				H59.733c-4.711-0.005-8.529-3.822-8.533-8.533v-8.533h8.533c2.263,0.001,4.434-0.898,6.035-2.499
				c1.6-1.6,2.499-3.771,2.499-6.035V204.8c0.001-2.263-0.898-4.434-2.499-6.035c-1.6-1.6-3.771-2.499-6.035-2.499H51.2v-8.533
				c0.005-4.711,3.822-8.529,8.533-8.533h392.533c4.711,0.005,8.529,3.822,8.533,8.533V196.267z"/>
			<path d="M418.133,196.267H93.867c-2.263-0.001-4.434,0.898-6.035,2.499c-1.6,1.6-2.499,3.771-2.499,6.035v102.4
				c-0.001,2.263,0.898,4.434,2.499,6.035c1.6,1.6,3.771,2.499,6.035,2.499h324.267c2.263,0.001,4.434-0.898,6.035-2.499
				c1.6-1.6,2.499-3.771,2.499-6.035V204.8c0.001-2.263-0.898-4.434-2.499-6.035C422.568,197.165,420.397,196.266,418.133,196.267z
				 M409.6,298.667H102.4v-85.333h307.2V298.667z"/>
			<path d="M472.575,128.683c-2.06-0.942-4.427-0.942-6.487,0c-1.033,0.433-1.984,1.039-2.813,1.792
				c-0.773,0.815-1.383,1.772-1.796,2.817c-1.122,2.625-0.843,5.638,0.741,8.013s4.259,3.789,7.114,3.762
				c1.119,0.027,2.229-0.207,3.242-0.683c1.034-0.433,1.987-1.039,2.817-1.792c1.604-1.606,2.496-3.788,2.475-6.058
				c-0.033-2.259-0.917-4.422-2.475-6.059C474.576,129.704,473.619,129.096,472.575,128.683z"/>
			<path d="M475.392,369.408c-3.421-3.158-8.695-3.158-12.117,0c-0.755,0.829-1.363,1.782-1.796,2.817
				c-1.575,3.761-0.255,8.11,3.144,10.362c3.399,2.252,7.919,1.771,10.768-1.145c1.615-1.564,2.511-3.727,2.475-5.975
				c-0.014-1.115-0.246-2.216-0.683-3.242C476.77,371.181,476.162,370.225,475.392,369.408z"/>
			<path d="M39.421,144.383c1.014,0.477,2.125,0.711,3.246,0.683c2.855,0.03,5.532-1.385,7.115-3.761
				c1.584-2.376,1.86-5.39,0.735-8.014c-0.413-1.044-1.021-2-1.791-2.817c-0.83-0.753-1.783-1.359-2.817-1.792
				c-2.06-0.942-4.427-0.942-6.487,0c-2.141,0.78-3.828,2.467-4.608,4.608c-1.357,3.176-0.647,6.858,1.795,9.301
				C37.437,143.345,38.388,143.951,39.421,144.383z"/>
			<path d="M48.725,369.408c-3.421-3.158-8.695-3.158-12.117,0c-0.755,0.829-1.363,1.782-1.796,2.817
				c-1.575,3.761-0.255,8.11,3.144,10.362c3.399,2.252,7.919,1.771,10.768-1.145c1.615-1.564,2.511-3.727,2.475-5.975
				c-0.014-1.115-0.246-2.216-0.683-3.242C50.104,371.181,49.496,370.225,48.725,369.408z"/>
			<path d="M128,256c2.264,0.003,4.435-0.897,6.033-2.5l8.533-8.533c3.281-3.341,3.256-8.701-0.054-12.012
				s-8.671-3.335-12.012-0.054l-8.533,8.533c-2.44,2.44-3.169,6.11-1.849,9.298C121.438,253.92,124.549,255.999,128,256z"/>
			<path d="M136.534,273.067c0,2.263,0.899,4.433,2.5,6.033c1.6,1.601,3.77,2.5,6.033,2.5s4.433-0.899,6.033-2.5l34.133-34.133
				c3.296-3.338,3.279-8.711-0.038-12.029c-3.317-3.317-8.691-3.334-12.029-0.038l-34.133,34.133
				C137.433,268.633,136.534,270.804,136.534,273.067z"/>
		</g>
	</g>
</g>
<g>
</g>
<g>
</g>
<g>
</g>
<g>
</g>
<g>
</g>
<g>
</g>
<g>
</g>
<g>
</g>
<g>
</g>
<g>
</g>
<g>
</g>
<g>
</g>
<g>
</g>
<g>
</g>
<g>
</g>
</svg>
