<?xml version="1.0" encoding="iso-8859-1"?>
<!-- Generator: Adobe Illustrator 19.0.0, SVG Export Plug-In . SVG Version: 6.00 Build 0)  -->
<svg version="1.1" id="Capa_1" xmlns="http://www.w3.org/2000/svg" xmlns:xlink="http://www.w3.org/1999/xlink" x="0px" y="0px"
	 viewBox="0 0 512 512" style="enable-background:new 0 0 512 512;" xml:space="preserve">
<g>
	<g>
		<path d="M185.379,185.379h-70.621c-4.873,0-8.828,3.955-8.828,8.828v211.862c0,4.873,3.955,8.828,8.828,8.828h70.621
			c4.873,0,8.828-3.955,8.828-8.828V194.207C194.207,189.334,190.252,185.379,185.379,185.379z M176.552,397.241h-52.966V203.034
			h52.966V397.241z"/>
	</g>
</g>
<g>
	<g>
		<path d="M291.31,97.103H220.69c-4.873,0-8.828,3.955-8.828,8.828v300.138c0,4.873,3.955,8.828,8.828,8.828h70.621
			c4.873,0,8.828-3.955,8.828-8.828V105.931C300.138,101.058,296.183,97.103,291.31,97.103z M282.483,397.241h-52.966V114.759
			h52.966V397.241z"/>
	</g>
</g>
<g>
	<g>
		<path d="M397.241,397.241h-70.621c-4.873,0-8.828,3.955-8.828,8.828s3.955,8.828,8.828,8.828h70.621
			c4.873,0,8.828-3.955,8.828-8.828S402.114,397.241,397.241,397.241z"/>
	</g>
</g>
<g>
	<g>
		<path d="M503.172,397.241h-70.621c-4.873,0-8.828,3.955-8.828,8.828s3.955,8.828,8.828,8.828h70.621
			c4.873,0,8.828-3.955,8.828-8.828S508.045,397.241,503.172,397.241z"/>
	</g>
</g>
<g>
	<g>
		<path d="M79.448,273.655H8.828c-4.873,0-8.828,3.955-8.828,8.828v123.586c0,4.873,3.955,8.828,8.828,8.828h70.621
			c4.873,0,8.828-3.955,8.828-8.828V282.483C88.276,277.61,84.321,273.655,79.448,273.655z M70.621,397.241H17.655V291.31h52.966
			V397.241z"/>
	</g>
</g>
<g>
</g>
<g>
</g>
<g>
</g>
<g>
</g>
<g>
</g>
<g>
</g>
<g>
</g>
<g>
</g>
<g>
</g>
<g>
</g>
<g>
</g>
<g>
</g>
<g>
</g>
<g>
</g>
<g>
</g>
</svg>
