<?xml version="1.0" encoding="iso-8859-1"?>
<!-- Generator: Adobe Illustrator 19.0.0, SVG Export Plug-In . SVG Version: 6.00 Build 0)  -->
<svg version="1.1" id="Capa_1" xmlns="http://www.w3.org/2000/svg" xmlns:xlink="http://www.w3.org/1999/xlink" x="0px" y="0px"
	 viewBox="0 0 511.998 511.998" style="enable-background:new 0 0 511.998 511.998;" xml:space="preserve">
<g>
	<g>
		<path d="M106.342,266.716c-6.611-6.61-15.4-10.251-24.749-10.251s-18.138,3.641-24.748,10.251
			c-6.611,6.61-10.252,15.399-10.252,24.748s3.641,18.139,10.251,24.748c6.61,6.611,15.4,10.251,24.749,10.251
			s18.138-3.641,24.748-10.251c6.61-6.61,10.251-15.399,10.251-24.749C116.592,282.114,112.951,273.325,106.342,266.716z
			 M92.199,302.071c-2.833,2.833-6.6,4.393-10.606,4.393c-4.006,0-7.773-1.56-10.607-4.394c-2.833-2.832-4.393-6.599-4.393-10.605
			c0-4.006,1.56-7.772,4.394-10.606c2.833-2.833,6.6-4.394,10.606-4.394c4.006,0,7.773,1.56,10.606,4.394
			c2.833,2.832,4.393,6.599,4.393,10.605C96.592,295.471,95.032,299.237,92.199,302.071z"/>
	</g>
</g>
<g>
	<g>
		<path d="M509.015,133.452c-2.598-2.561-6.386-3.505-9.882-2.461l-168.392,50.26l50.261-168.392
			c1.044-3.496,0.101-7.283-2.462-9.881c-2.561-2.597-6.331-3.593-9.846-2.601l-43.658,12.366c-2.838,0.804-5.176,2.819-6.389,5.508
			L231.738,210.8l-88.673,26.466c-20.645-24.538-53.972-34.731-85.176-25.415C15.06,224.635-9.385,269.879,3.398,312.709
			c10.484,35.126,42.802,57.886,77.716,57.886c7.657,0,15.439-1.095,23.143-3.394c29.942-8.937,51.731-34.055,56.782-64.247
			l43.711,4.289l4.289,43.71c-30.192,5.05-55.311,26.839-64.249,56.782c-12.783,42.83,11.663,88.075,54.492,100.858
			c7.569,2.259,15.379,3.405,23.212,3.405c17.091,0,34.128-5.596,47.974-15.756c14.32-10.508,24.581-25.08,29.673-42.14
			c9.313-31.204-0.878-64.531-25.416-85.176l26.466-88.672l192.551-86.909c2.688-1.213,4.703-3.551,5.507-6.389l12.366-43.657
			C512.61,139.787,511.613,136.015,509.015,133.452z M202.895,274.702c-0.72,1.594-1.009,3.349-0.838,5.09l0.702,7.158
			l-49.673-4.872c-2.749-0.268-5.485,0.609-7.563,2.427s-3.311,4.414-3.408,7.173c-0.921,26.205-18.434,48.854-43.578,56.358
			c-32.266,9.629-66.346-8.786-75.975-41.047c-9.628-32.263,8.785-66.344,41.048-75.974c25.29-7.549,52.427,1.906,67.527,23.526
			c2.47,3.535,6.929,5.088,11.058,3.855l78.656-23.477L202.895,274.702z M253.594,369.796c-1.233,4.131,0.321,8.588,3.856,11.057
			c21.62,15.102,31.075,42.24,23.527,67.528c-7.665,25.68-31.714,43.616-58.483,43.616c-5.895,0-11.78-0.865-17.492-2.569
			c-32.262-9.629-50.676-43.711-41.047-75.974c7.505-25.145,30.154-42.658,56.359-43.579c2.759-0.097,5.356-1.33,7.174-3.408
			c0.972-1.11,1.665-2.411,2.068-3.798c0.146-0.29,0.284-0.585,0.404-0.893l23.889-61.474c2-5.148-0.551-10.942-5.699-12.943
			c-5.149-2.003-10.943,0.551-12.943,5.699l-9.383,24.145l-3.601-36.707l112.74-249.779l21.669-6.138L253.594,369.796z
			 M481.274,177.029L308.76,254.895l15.142-50.731l163.51-48.802L481.274,177.029z"/>
	</g>
</g>
<g>
	<g>
		<path d="M247.206,406.197c-6.61-6.61-15.399-10.25-24.748-10.25s-18.138,3.64-24.748,10.251
			c-6.611,6.61-10.251,15.399-10.251,24.748s3.64,18.138,10.251,24.748c6.61,6.611,15.399,10.251,24.748,10.251
			s18.138-3.64,24.749-10.251C260.852,442.048,260.852,419.844,247.206,406.197z M233.066,441.552
			c-2.834,2.833-6.601,4.394-10.607,4.394c-4.006,0-7.773-1.561-10.607-4.393c-2.832-2.833-4.393-6.6-4.393-10.606
			s1.561-7.773,4.393-10.606c2.833-2.833,6.6-4.393,10.607-4.393c4.007,0,7.774,1.56,10.607,4.393
			C238.913,426.188,238.913,435.704,233.066,441.552z"/>
	</g>
</g>
<g>
	<g>
		<path d="M259.025,259.351c-5.151-1.997-10.943,0.559-12.939,5.709l-0.117,0.302c-1.997,5.149,0.56,10.942,5.709,12.938
			c1.188,0.46,2.41,0.679,3.612,0.679c4.008,0,7.791-2.427,9.326-6.388l0.117-0.302C266.73,267.14,264.174,261.348,259.025,259.351z
			"/>
	</g>
</g>
<g>
</g>
<g>
</g>
<g>
</g>
<g>
</g>
<g>
</g>
<g>
</g>
<g>
</g>
<g>
</g>
<g>
</g>
<g>
</g>
<g>
</g>
<g>
</g>
<g>
</g>
<g>
</g>
<g>
</g>
</svg>
