<?xml version='1.0' encoding='utf-8'?>
<!DOCTYPE svg PUBLIC '-//W3C//DTD SVG 1.1//EN' 'http://www.w3.org/Graphics/SVG/1.1/DTD/svg11.dtd'>
<svg width="64" version="1.1" xmlns="http://www.w3.org/2000/svg" height="64" viewBox="0 0 64 64" xmlns:xlink="http://www.w3.org/1999/xlink" enable-background="new 0 0 64 64">
  <g>
    <g fill="#1D1D1B">
      <path d="M32,0C14.355,0,0,14.355,0,32s14.355,32,32,32s32-14.355,32-32S49.645,0,32,0z M32,60    C16.561,60,4,47.439,4,32S16.561,4,32,4s28,12.561,28,28S47.439,60,32,60z"/>
      <circle cx="20.518" cy="21.361" r="4.338"/>
      <circle cx="43.48" cy="21.361" r="4.338"/>
      <path d="m52.541,36.568c-1.053-0.316-2.172,0.287-2.488,1.344-0.035,0.119-3.739,11.947-18.053,11.947-14.219,0-17.904-11.467-18.055-11.955-0.32-1.055-1.441-1.65-2.486-1.336-1.059,0.317-1.66,1.432-1.344,2.489 0.045,0.148 4.627,14.802 21.885,14.802s21.84-14.654 21.885-14.803c0.316-1.056-0.285-2.171-1.344-2.488z"/>
    </g>
  </g>
</svg>
