<?xml version="1.0" encoding="iso-8859-1"?>
<!-- Generator: Adobe Illustrator 19.0.0, SVG Export Plug-In . SVG Version: 6.00 Build 0)  -->
<svg version="1.1" id="Capa_1" xmlns="http://www.w3.org/2000/svg" xmlns:xlink="http://www.w3.org/1999/xlink" x="0px" y="0px"
	 viewBox="0 0 511.996 511.996" style="enable-background:new 0 0 511.996 511.996;" xml:space="preserve">
<g>
	<g>
		<path d="M441.154,176.9L261.954,2.419c-3.311-3.226-8.593-3.226-11.904,0L70.85,176.9c-1.655,1.604-2.586,3.806-2.586,6.11
			c0,2.304,0.939,4.506,2.586,6.11l48.666,47.386c3.319,3.243,8.61,3.234,11.921-0.017l81.894-80.299v347.273
			c0,4.71,3.823,8.533,8.533,8.533h68.267c4.71,0,8.533-3.823,8.533-8.533V156.19l81.894,80.299c3.311,3.251,8.61,3.243,11.93,0.017
			l48.666-47.386c1.647-1.604,2.577-3.806,2.577-6.11C443.731,180.706,442.801,178.505,441.154,176.9z M386.549,218.466
			l-90.445-88.695c-2.449-2.406-6.11-3.115-9.276-1.775c-3.166,1.331-5.231,4.429-5.231,7.868v359.066h-51.2V135.863
			c0-3.439-2.057-6.536-5.231-7.868c-3.166-1.34-6.818-0.631-9.276,1.775l-90.445,88.695L89.035,183.01L255.998,20.433
			L422.97,183.01L386.549,218.466z"/>
	</g>
</g>
<g>
</g>
<g>
</g>
<g>
</g>
<g>
</g>
<g>
</g>
<g>
</g>
<g>
</g>
<g>
</g>
<g>
</g>
<g>
</g>
<g>
</g>
<g>
</g>
<g>
</g>
<g>
</g>
<g>
</g>
</svg>
