<svg height="507pt" viewBox="0 -62 507.2 507" width="507pt" xmlns="http://www.w3.org/2000/svg"><path d="m219.46875 302.011719c-18.75 18.746093-18.753906 49.140625-.007812 67.886719 18.746093 18.746093 49.140624 18.746093 67.886718 0 18.742188-18.746094 18.742188-49.140626-.007812-67.886719-18.746094-18.738281-49.128906-18.738281-67.871094 0zm0 0"/><path d="m140.265625 238.8125c-4.15625 4.015625-5.824219 9.964844-4.363281 15.558594 1.464844 5.597656 5.835937 9.964844 11.429687 11.429687 5.59375 1.464844 11.542969-.203125 15.558594-4.363281 50.023437-49.902344 131-49.902344 181.023437 0 6.28125 6.0625 16.257813 5.976562 22.429688-.195312 6.171875-6.171876 6.257812-16.152344.195312-22.429688-62.523437-62.386719-163.746093-62.386719-226.273437 0zm0 0"/><path d="m253.402344 95.949219c-67.929688-.1875-133.113282 26.816406-181.007813 74.992187-5.808593 6.3125-5.605469 16.082032.460938 22.148438 6.066406 6.066406 15.835937 6.269531 22.148437.460937 87.480469-87.488281 229.320313-87.488281 316.800782 0 4.015624 4.15625 9.964843 5.824219 15.558593 4.359375 5.59375-1.460937 9.964844-5.832031 11.425781-11.425781 1.464844-5.59375-.203124-11.542969-4.363281-15.558594-47.898437-48.175781-113.085937-75.175781-181.023437-74.976562zm0 0"/><path d="m502.316406 103.035156c-137.5625-137.246094-360.261718-137.246094-497.824218 0-6.0625 6.28125-5.976563 16.257813.195312 22.429688s16.148438 6.257812 22.429688.195312c125.070312-124.738281 327.5-124.738281 452.574218 0 4.015625 4.160156 9.964844 5.828125 15.558594 4.363282 5.59375-1.464844 9.964844-5.832032 11.429688-11.425782 1.464843-5.59375-.203126-11.542968-4.363282-15.5625zm0 0"/></svg>